<?xml version="1.0" standalone="no"?>
<!DOCTYPE svg PUBLIC "-//W3C//DTD SVG 20010904//EN"
 "http://www.w3.org/TR/2001/REC-SVG-20010904/DTD/svg10.dtd">
<svg version="1.0" xmlns="http://www.w3.org/2000/svg"
 width="500.000000pt" height="500.000000pt" viewBox="0 0 500.000000 500.000000"
 preserveAspectRatio="xMidYMid meet">
<metadata>
Created by potrace 1.11, written by Peter Selinger 2001-2013
</metadata>
<g transform="translate(0.000000,500.000000) scale(0.100000,-0.100000)"
fill="#000000" stroke="none">
<path d="M2292 4880 c-573 -56 -1076 -293 -1478 -698 -352 -354 -576 -802
-661 -1317 -25 -156 -25 -534 0 -695 25 -159 77 -353 131 -493 311 -804 1012
-1369 1866 -1504 161 -25 539 -25 695 0 432 71 815 239 1140 502 432 348 736
852 839 1390 45 237 55 562 23 775 -80 528 -294 962 -656 1333 -369 379 -831
613 -1361 692 -130 19 -413 27 -538 15z m-385 -2207 c-3 -760 -2 -735 -62
-858 -67 -137 -229 -217 -440 -218 -120 0 -205 20 -291 68 -139 78 -194 204
-194 443 l0 92 110 0 110 0 0 -88 c0 -215 69 -309 236 -320 125 -8 222 35 263
117 37 71 41 159 41 820 l0 641 115 0 116 0 -4 -697z m933 -30 c135 -398 247
-723 250 -723 3 0 115 326 249 725 l245 725 163 0 163 0 0 -865 0 -865 -111 0
-112 0 5 720 c2 396 1 715 -3 708 -3 -7 -114 -331 -245 -720 l-239 -708 -116
0 -117 0 -100 293 c-54 160 -164 482 -243 714 l-144 422 -3 -714 -2 -715 -110
0 -110 0 0 865 0 865 167 -2 167 -3 246 -722z"/>
</g>
</svg>
